<?xml version="1.0" standalone="no"?><!DOCTYPE svg PUBLIC "-//W3C//DTD SVG 1.1//EN" "http://www.w3.org/Graphics/SVG/1.1/DTD/svg11.dtd"><svg t="1608738789281" class="icon" viewBox="0 0 1024 1024" version="1.1" xmlns="http://www.w3.org/2000/svg" p-id="1363" width="16" height="16" xmlns:xlink="http://www.w3.org/1999/xlink"><defs><style type="text/css"></style></defs><path d="M950.272 563.2v-270.336c0-18.432-12.288-38.912-28.672-49.152l-380.928-219.136c-16.384-10.24-40.96-10.24-57.344 0l-380.928 219.136c-16.384 10.24-28.672 30.72-28.672 49.152V563.2h-22.528v327.68h241.664l190.464 110.592c8.192 4.096 18.432 6.144 28.672 6.144s20.48-2.048 28.672-6.144l190.464-110.592h241.664v-327.68h-22.528z m-417.792 395.264V890.88h116.736l-116.736 67.584z m-40.96 0l-116.736-67.584h116.736v67.584z m417.792-395.264H532.48v-38.912l376.832-206.848v245.76z m-794.624-245.76l376.832 206.848v38.912h-376.832v-245.76z m389.12-258.048c4.096-2.048 12.288-2.048 16.384 0l376.832 217.088-385.024 212.992-385.024-212.992 376.832-217.088z m-178.176 763.904c-20.48 0-36.864-4.096-49.152-12.288-14.336-10.24-20.48-26.624-22.528-49.152h20.48c2.048 14.336 6.144 26.624 16.384 32.768 8.192 6.144 20.48 10.24 34.816 10.24s26.624-2.048 34.816-8.192c8.192-6.144 12.288-12.288 12.288-22.528 0-10.24-6.144-20.48-18.432-26.624-4.096-2.048-18.432-6.144-36.864-12.288-20.48-6.144-34.816-12.288-40.96-14.336-14.336-8.192-20.48-18.432-20.48-34.816 0-14.336 6.144-26.624 18.432-34.816 12.288-8.192 26.624-12.288 45.056-12.288 20.48 0 34.816 4.096 47.104 14.336 12.288 10.24 18.432 22.528 20.48 40.96h-20.48c-2.048-12.288-6.144-22.528-14.336-28.672-8.192-6.144-18.432-10.24-32.768-10.24-12.288 0-22.528 2.048-30.72 6.144-8.192 4.096-12.288 12.288-12.288 22.528 0 8.192 4.096 16.384 14.336 20.48 4.096 2.048 14.336 6.144 32.768 10.24 22.528 6.144 38.912 12.288 45.056 16.384 14.336 8.192 22.528 20.48 22.528 36.864 0 14.336-6.144 26.624-18.432 36.864-10.24 14.336-26.624 18.432-47.104 18.432z m290.816 2.048l-12.288 12.288c-6.144-10.24-14.336-18.432-20.48-28.672-12.288 8.192-28.672 14.336-47.104 14.336h-4.096c-16.384 0-28.672-4.096-40.96-12.288-6.144-4.096-12.288-8.192-18.432-14.336-14.336-16.384-22.528-38.912-22.528-65.536 0-26.624 6.144-49.152 22.528-65.536 6.144-6.144 10.24-10.24 18.432-14.336 12.288-6.144 24.576-10.24 40.96-12.288h4.096c26.624 0 47.104 8.192 61.44 26.624 14.336 16.384 22.528 38.912 22.528 65.536 0 26.624-8.192 47.104-22.528 65.536l-2.048 2.048c8.192 8.192 14.336 16.384 20.48 26.624z m-32.768-147.456c10.24 12.288 16.384 30.72 16.384 53.248 0 20.48-4.096 36.864-14.336 51.2-10.24-12.288-20.48-22.528-30.72-34.816l-12.288 12.288c10.24 10.24 20.48 22.528 28.672 34.816-10.24 6.144-22.528 10.24-36.864 10.24h-4.096c-16.384 0-30.72-6.144-40.96-18.432l-2.048-2.048c-10.24-12.288-16.384-30.72-16.384-53.248s6.144-38.912 16.384-53.248c0-2.048 2.048-2.048 2.048-2.048 10.24-10.24 24.576-16.384 40.96-18.432h4.096c22.528 0 36.864 8.192 49.152 20.48z m227.328 122.88v18.432H690.176v-176.128h20.48v157.696H811.008z" p-id="1364" fill="#1296db"></path></svg>
